<svg xmlns="http://www.w3.org/2000/svg" width="80" height="80.594" viewBox="0 0 80 80.594">
  <g id="Group_7" data-name="Group 7" transform="translate(-478 -42.129)">
    <path id="Path_10" data-name="Path 10" d="M650.5,380.026H639.855a1.513,1.513,0,1,1,0-3.026H650.5a1.513,1.513,0,1,1,0,3.026Z" transform="translate(-127.178 -262.49)" fill="#0071bb"/>
    <path id="Path_11" data-name="Path 11" d="M582.991,100.182a1.431,1.431,0,0,1-1.326-.964c-1.582-4.291-3.862-9.3-4.8-10.078-9.623-2.9-16.334-12.366-16.334-23.055,0-13.209,10.074-23.956,22.456-23.956s22.456,10.747,22.456,23.956a25.036,25.036,0,0,1-4.968,15.03,22.438,22.438,0,0,1-12.235,8.267c-.822.949-2.647,5.712-3.9,9.756a1.44,1.44,0,0,1-1.314,1.043Zm0-55.011c-10.81,0-19.6,9.382-19.6,20.914,0,9.366,5.9,17.653,14.35,20.155.847.25,1.954.98,4.4,6.492.262.592.513,1.178.745,1.734.182-.512.376-1.047.579-1.586,1.888-5.017,2.872-6.149,3.932-6.409C596.343,84.282,602.6,75.9,602.6,66.085,602.6,54.553,593.8,45.171,582.991,45.171Z" transform="translate(-64.695 0)" fill="#0071bb"/>
    <path id="Path_12" data-name="Path 12" d="M553.833,200.917V162.891A3.748,3.748,0,0,0,550.07,159h-2.749a1.514,1.514,0,0,0,0,3.026h2.749a.782.782,0,0,1,.847.865v38.041h-66.25V162.891a.955.955,0,0,1,1.019-.865h2.26a1.514,1.514,0,0,0,0-3.026h-2.26a3.937,3.937,0,0,0-3.936,3.891V200.93a4.2,4.2,0,0,0-3.75,4.043V210.3a4.119,4.119,0,0,0,4.082,4.037h71.836A4.119,4.119,0,0,0,558,210.3v-5.324A4.121,4.121,0,0,0,553.833,200.917Zm1.042,9.376a1,1,0,0,1-.977,1.014H482.1a1,1,0,0,1-.978-1.014v-5.321a1,1,0,0,1,.978-1.014h71.8a1,1,0,0,1,.977,1.014Z" transform="translate(0 -91.61)" fill="#0071bb"/>
    <path id="Path_13" data-name="Path 13" d="M605.836,113.356h17.289s4.217.422,4.357,3.8v13.072H610.756s-4.779.562-4.92-4.357Z" transform="translate(-101.556 -55.832)" fill="#0071bb"/>
    <path id="Path_14" data-name="Path 14" d="M717.984,113.356v16.887l-7.45-4.939v-6.888Z" transform="translate(-184.269 -55.832)" fill="#0071bb"/>
  </g>
</svg>
