<svg xmlns="http://www.w3.org/2000/svg" width="80.277" height="77.951" viewBox="0 0 80.277 77.951">
  <g id="Group_5" data-name="Group 5" transform="translate(-309 -291.129)">
    <path id="Path_6" data-name="Path 6" d="M481.1,628.927H470.8a1.463,1.463,0,1,1,0-2.927h10.3a1.463,1.463,0,1,1,0,2.927Z" transform="translate(-126.815 -264.865)" fill="#0071bb"/>
    <path id="Path_7" data-name="Path 7" d="M414.705,347.277a1.472,1.472,0,0,1-1.369-.933c-1.632-4.15-3.985-9-4.948-9.747a23.166,23.166,0,1,1,11.738.234c-.848.918-2.731,5.524-4.023,9.436a1.471,1.471,0,0,1-1.356,1.009Zm0-53.206a20.231,20.231,0,0,0-5.422,39.722c.873.242,2.017.948,4.538,6.279.271.572.529,1.139.769,1.677.187-.5.388-1.012.6-1.534,1.948-4.853,2.963-5.947,4.057-6.2a20.231,20.231,0,0,0-4.539-39.945Z" transform="translate(-65.281)" fill="#0071bb"/>
    <path id="Path_8" data-name="Path 8" d="M462.1,359.836l-13.015-6.681a1.469,1.469,0,0,0-1.285-.028l-12.423,5.7a1.471,1.471,0,0,0-.858,1.316,1.447,1.447,0,0,0,.793,1.34l3.489,1.735v7.26l.074.181c.211.816,1.554,3.48,9.821,3.48,8.307,0,9.543-2.7,9.725-3.532l.032-.156V363.9l3.508-1.384a1.471,1.471,0,0,0,.14-2.677ZM448.372,356.1l9.492,4.872-9.39,3.715-9.066-4.474Zm7.149,13.776c-.418.344-1.918,1.323-6.853,1.323-4.951,0-6.527-.988-6.945-1.346V364.67l6,2.943a1.549,1.549,0,0,0,.669.152,1.506,1.506,0,0,0,.549-.1l6.582-2.6Z" transform="translate(-99.275 -48.93)" fill="#0071bb"/>
    <path id="Path_9" data-name="Path 9" d="M385.1,448.542V411.763A3.691,3.691,0,0,0,381.319,408h-2.758a1.463,1.463,0,1,0,0,2.927h2.758a.77.77,0,0,1,.85.837v36.793H315.69V411.763a.948.948,0,0,1,1.023-.837h2.268a1.463,1.463,0,1,0,0-2.927h-2.268a3.884,3.884,0,0,0-3.949,3.763v36.791A4.131,4.131,0,0,0,309,452.465v5.149a4.063,4.063,0,0,0,4.1,3.9h72.085a4.063,4.063,0,0,0,4.1-3.9v-5.149A4.066,4.066,0,0,0,385.1,448.542Zm1.045,9.069a.981.981,0,0,1-.981.981H313.117a.981.981,0,0,1-.981-.981v-5.147a.981.981,0,0,1,.981-.981H385.16a.981.981,0,0,1,.981.981Z" transform="translate(0 -92.439)" fill="#0071bb"/>
  </g>
</svg>
