<svg xmlns="http://www.w3.org/2000/svg" width="36" height="36" viewBox="0 0 36 36">
  <path id="instagram-brands" d="M17.929,40.6a9.23,9.23,0,1,0,9.228,9.23A9.214,9.214,0,0,0,17.929,40.6Zm0,15.231a6,6,0,1,1,6-6A6.011,6.011,0,0,1,17.929,55.826ZM29.687,40.217a2.152,2.152,0,1,1-2.152-2.153A2.148,2.148,0,0,1,29.687,40.217ZM35.8,42.4c-.137-2.884-.8-5.438-2.907-7.543S28.233,32.1,25.35,31.952c-2.972-.169-11.878-.169-14.85,0-2.875.137-5.429.8-7.541,2.9S.2,39.511.051,42.394c-.169,2.972-.169,11.881,0,14.853.137,2.884.8,5.438,2.907,7.543S7.617,67.554,10.5,67.7c2.972.169,11.878.169,14.85,0,2.883-.137,5.437-.8,7.541-2.908s2.763-4.659,2.907-7.543C35.967,54.275,35.967,45.375,35.8,42.4ZM31.96,60.437a6.074,6.074,0,0,1-3.421,3.422c-2.369.94-7.991.723-10.609.723s-8.248.209-10.609-.723A6.074,6.074,0,0,1,3.9,60.437c-.94-2.37-.723-7.993-.723-10.612s-.209-8.25.723-10.612A6.074,6.074,0,0,1,7.32,35.791c2.369-.94,7.991-.723,10.609-.723s8.248-.209,10.609.723a6.074,6.074,0,0,1,3.421,3.422c.94,2.37.723,7.993.723,10.612S32.9,58.075,31.96,60.437Z" transform="translate(0.075 -31.825)" fill="#da2028"/>
</svg>
