<svg xmlns="http://www.w3.org/2000/svg" width="46.414" height="53.791" viewBox="0 0 46.414 53.791">
  <path id="Path_17" data-name="Path 17" d="M557.3,441.916a17.276,17.276,0,1,0-14.484.091C533.632,444.914,527,453.085,527,462.685v.107l2.39-.014v-.093c0-9.915,8-18.117,18.3-19.28a17.319,17.319,0,0,0,4.755-.03c10.43,1.045,18.578,9.306,18.578,19.31v.093l2.39.014v-.107C573.414,452.982,566.638,444.74,557.3,441.916Zm-22.226-15.638a14.887,14.887,0,1,1,17.29,14.69c-.711-.062-1.43-.1-2.158-.1q-1.254,0-2.476.124A14.91,14.91,0,0,1,535.075,426.277Z" transform="translate(-527 -409)" fill="#747474"/>
</svg>
